<svg width="38" height="38" viewBox="0 0 38 38" fill="none" xmlns="http://www.w3.org/2000/svg">
<path opacity="0.4" d="M27.8667 0H10.1333C3.66489 0 0 3.66489 0 10.1333V27.8667C0 34.3182 3.648 38 10.1333 38H27.8667C34.3351 38 38 34.3182 38 27.8667V10.1333C38 3.66489 34.3351 0 27.8667 0Z" fill="#49CCF9"/>
<path d="M25.3089 20.3459H20.4241V25.1883C20.4241 25.968 19.7865 26.6 19 26.6C18.2135 26.6 17.5759 25.968 17.5759 25.1883V20.3459H12.6912C11.9575 20.2706 11.4 19.6577 11.4 18.9265C11.4 18.1954 11.9575 17.5825 12.6912 17.5072H17.5606V12.68C17.6366 11.9527 18.2548 11.4 18.9924 11.4C19.7299 11.4 20.3481 11.9527 20.4241 12.68V17.5072H25.3089C26.0425 17.5825 26.6 18.1954 26.6 18.9265C26.6 19.6577 26.0425 20.2706 25.3089 20.3459Z" fill="#49CCF9"/>
</svg>
