<svg width="38" height="39" viewBox="0 0 38 39" fill="none" xmlns="http://www.w3.org/2000/svg">
<rect x="0.75" y="0.75" width="36.5" height="37.5" rx="9.25" stroke="#7B68EE" stroke-width="1.5"/>
<path opacity="0.4" d="M26.4667 4H11.5333C6.08622 4 3 7.08622 3 12.5333V27.4667C3 32.8996 6.072 36 11.5333 36H26.4667C31.9138 36 35 32.8996 35 27.4667V12.5333C35 7.08622 31.9138 4 26.4667 4Z" fill="white"/>
<path d="M24.4987 20.4461L16.8109 28.134C16.5942 28.3506 16.3004 28.4723 15.994 28.4723C15.6877 28.4723 15.3938 28.3506 15.1772 28.134C14.9606 27.9173 14.8389 27.6235 14.8389 27.3171C14.8389 27.0108 14.9606 26.7169 15.1772 26.5003L22.0492 19.6302L15.1791 12.7583C15.0719 12.651 14.9868 12.5237 14.9287 12.3835C14.8707 12.2433 14.8408 12.0931 14.8408 11.9414C14.8408 11.7897 14.8707 11.6395 14.9287 11.4994C14.9868 11.3592 15.0719 11.2319 15.1791 11.1246C15.2864 11.0173 15.4137 10.9322 15.5539 10.8742C15.6941 10.8161 15.8443 10.7863 15.996 10.7863C16.1477 10.7863 16.2979 10.8161 16.438 10.8742C16.5782 10.9322 16.7055 11.0173 16.8128 11.1246L24.5007 18.8124C24.608 18.9197 24.6932 19.0471 24.7512 19.1874C24.8093 19.3276 24.839 19.4779 24.8389 19.6297C24.8387 19.7815 24.8086 19.9317 24.7502 20.0718C24.6918 20.2119 24.6064 20.3391 24.4987 20.4461Z" fill="#7B68EE"/>
</svg>
